<svg width="74" height="24" viewBox="0 0 74 24" fill="none" xmlns="http://www.w3.org/2000/svg">
<path d="M7.94981 23.5666H10.3693V21.3985H8.10692C6.22159 21.3985 5.56172 20.3616 5.56172 18.6019V9.33239H10.5893V7.2271H5.56172V2.48235H3.23648V6.41012C3.23648 6.9443 2.89084 7.2271 2.45093 7.2271H0V9.33239H3.07937V18.6334C3.07937 21.9327 4.93328 23.5666 7.94981 23.5666Z" fill="white"/>
<path d="M21.8936 23.9751C25.7271 23.9751 28.5866 21.807 29.4978 18.759H26.9212C26.1671 20.6758 24.0932 21.7127 21.9251 21.7127C18.5629 21.7127 16.4576 19.5446 16.3319 16.2767H29.6549V15.1769C29.6549 10.4636 26.7012 6.81861 21.7365 6.81861C17.2746 6.81861 13.7239 10.1808 13.7239 15.3969C13.7239 20.2987 16.8975 23.9751 21.8936 23.9751ZM16.3948 14.0771C16.6461 11.0606 19.0028 9.08101 21.7365 9.08101C24.5017 9.08101 26.7955 10.8092 27.0155 14.0771H16.3948Z" fill="white"/>
<path d="M36.3525 23.5666H37.5465V21.3671H36.7924C36.0069 21.3671 35.5984 20.8957 35.5984 20.0788V0H33.116V20.0788C33.116 22.3097 34.3101 23.5666 36.3525 23.5666Z" fill="white"/>
<path d="M67.2425 23.9751C71.0445 23.9751 73.5897 21.9013 73.5897 18.8219C73.5897 12.0661 63.786 15.5226 63.786 11.3748C63.786 9.96083 65.1058 8.95532 67.1482 8.95532C69.3163 8.95532 70.4789 9.99225 70.6989 11.5319H73.087C72.8356 8.57825 70.3218 6.81861 67.3053 6.81861C63.8803 6.81861 61.3979 8.60968 61.3979 11.3748C61.3979 17.8478 71.1702 14.3599 71.1702 18.9476C71.1702 20.6129 69.8191 21.807 67.3681 21.807C64.9801 21.807 63.5975 20.7701 63.3147 18.8219H60.8952C61.178 21.8698 63.3775 23.9751 67.2425 23.9751Z" fill="white"/>
<circle cx="49.0142" cy="15.3326" r="8.66743" fill="white"/>
</svg>
